<mxfile host="app.diagrams.net" agent="Mozilla/5.0 (Windows NT 10.0; Win64; x64) AppleWebKit/537.36 (KHTML, like Gecko) Chrome/140.0.0.0 Safari/537.36" version="28.2.1">
  <diagram name="Page-1" id="2YBvvXClWsGukQMizWep">
    <mxGraphModel dx="1584" dy="834" grid="1" gridSize="10" guides="1" tooltips="1" connect="1" arrows="1" fold="1" page="1" pageScale="1" pageWidth="850" pageHeight="1100" math="0" shadow="0">
      <root>
        <mxCell id="0" />
        <mxCell id="1" parent="0" />
        <mxCell id="dWqMGCR1HXPKz_qinvt6-51" value="" style="group" vertex="1" connectable="0" parent="1">
          <mxGeometry x="100" y="220" width="660" height="225" as="geometry" />
        </mxCell>
        <mxCell id="dWqMGCR1HXPKz_qinvt6-52" value="alt" style="shape=umlFrame;whiteSpace=wrap;html=1;pointerEvents=0;" vertex="1" parent="dWqMGCR1HXPKz_qinvt6-51">
          <mxGeometry width="660" height="225" as="geometry" />
        </mxCell>
        <mxCell id="dWqMGCR1HXPKz_qinvt6-53" value="" style="endArrow=none;dashed=1;html=1;rounded=0;exitX=0.006;exitY=0.529;exitDx=0;exitDy=0;exitPerimeter=0;entryX=0.969;entryY=0.529;entryDx=0;entryDy=0;entryPerimeter=0;" edge="1" parent="dWqMGCR1HXPKz_qinvt6-51" source="dWqMGCR1HXPKz_qinvt6-52" target="dWqMGCR1HXPKz_qinvt6-52">
          <mxGeometry width="50" height="50" relative="1" as="geometry">
            <mxPoint x="824.9999999999999" y="119.11764705882352" as="sourcePoint" />
            <mxPoint x="928.1250000000001" y="52.94117647058824" as="targetPoint" />
            <Array as="points">
              <mxPoint x="309.375" y="119.11764705882352" />
            </Array>
          </mxGeometry>
        </mxCell>
        <mxCell id="dWqMGCR1HXPKz_qinvt6-54" value="[if Object{errors}]" style="text;html=1;align=center;verticalAlign=middle;resizable=0;points=[];autosize=1;strokeColor=none;fillColor=none;" vertex="1" parent="dWqMGCR1HXPKz_qinvt6-51">
          <mxGeometry x="-8.461538461538462" y="72.79411764705883" width="110" height="30" as="geometry" />
        </mxCell>
        <mxCell id="dWqMGCR1HXPKz_qinvt6-55" value="[if Object{null}]" style="text;html=1;align=center;verticalAlign=middle;resizable=0;points=[];autosize=1;strokeColor=none;fillColor=none;" vertex="1" parent="dWqMGCR1HXPKz_qinvt6-51">
          <mxGeometry x="-10.153846153846153" y="124.41176470588236" width="100" height="30" as="geometry" />
        </mxCell>
        <mxCell id="dWqMGCR1HXPKz_qinvt6-56" value="HTTP Response&amp;nbsp;&lt;div&gt;(invalid information)&lt;/div&gt;" style="html=1;verticalAlign=bottom;endArrow=open;dashed=1;endSize=8;labelBackgroundColor=none;fontFamily=Verdana;fontSize=12;edgeStyle=elbowEdgeStyle;elbow=vertical;" edge="1" parent="dWqMGCR1HXPKz_qinvt6-51">
          <mxGeometry relative="1" as="geometry">
            <mxPoint x="150" y="105.79" as="targetPoint" />
            <Array as="points">
              <mxPoint x="246.9224786324786" y="105.58352941176472" />
              <mxPoint x="297.69170940170943" y="105.58352941176472" />
            </Array>
            <mxPoint x="273" y="102.79" as="sourcePoint" />
          </mxGeometry>
        </mxCell>
        <mxCell id="dWqMGCR1HXPKz_qinvt6-143" value="object&lt;div&gt;(invalidInputs)&lt;/div&gt;" style="html=1;verticalAlign=bottom;endArrow=open;dashed=1;endSize=8;labelBackgroundColor=none;fontFamily=Verdana;fontSize=12;edgeStyle=elbowEdgeStyle;elbow=vertical;" edge="1" parent="dWqMGCR1HXPKz_qinvt6-51">
          <mxGeometry relative="1" as="geometry">
            <mxPoint x="309.9994017094018" y="86.41352941176471" as="targetPoint" />
            <Array as="points">
              <mxPoint x="436.9224786324786" y="86.41352941176471" />
              <mxPoint x="487.69170940170943" y="86.41352941176471" />
            </Array>
            <mxPoint x="450" y="86" as="sourcePoint" />
          </mxGeometry>
        </mxCell>
        <mxCell id="dWqMGCR1HXPKz_qinvt6-58" value="(User)" style="shape=umlLifeline;perimeter=lifelinePerimeter;whiteSpace=wrap;html=1;container=1;collapsible=0;recursiveResize=0;outlineConnect=0;rounded=1;shadow=0;comic=0;labelBackgroundColor=none;strokeWidth=1;fontFamily=Verdana;fontSize=12;align=center;" vertex="1" parent="1">
          <mxGeometry x="189" y="100" width="100" height="680" as="geometry" />
        </mxCell>
        <mxCell id="dWqMGCR1HXPKz_qinvt6-59" value="" style="html=1;points=[];perimeter=orthogonalPerimeter;rounded=0;shadow=0;comic=0;labelBackgroundColor=none;strokeWidth=1;fontFamily=Verdana;fontSize=12;align=center;" vertex="1" parent="dWqMGCR1HXPKz_qinvt6-58">
          <mxGeometry x="45" y="100" width="10" height="560" as="geometry" />
        </mxCell>
        <mxCell id="dWqMGCR1HXPKz_qinvt6-60" value="Front end" style="shape=note;whiteSpace=wrap;html=1;size=14;verticalAlign=top;align=center;spacingTop=-6;rounded=0;shadow=0;comic=0;labelBackgroundColor=none;strokeWidth=1;fontFamily=Verdana;fontSize=12" vertex="1" parent="1">
          <mxGeometry x="189" y="50" width="100" height="35" as="geometry" />
        </mxCell>
        <mxCell id="dWqMGCR1HXPKz_qinvt6-61" value="Controller" style="shape=note;whiteSpace=wrap;html=1;size=14;verticalAlign=top;align=center;spacingTop=-6;rounded=0;shadow=0;comic=0;labelBackgroundColor=none;strokeWidth=1;fontFamily=Verdana;fontSize=12" vertex="1" parent="1">
          <mxGeometry x="339" y="50" width="100" height="35" as="geometry" />
        </mxCell>
        <mxCell id="dWqMGCR1HXPKz_qinvt6-62" value="LeconController" style="shape=umlLifeline;perimeter=lifelinePerimeter;whiteSpace=wrap;html=1;container=1;collapsible=0;recursiveResize=0;outlineConnect=0;rounded=1;shadow=0;comic=0;labelBackgroundColor=none;strokeWidth=1;fontFamily=Verdana;fontSize=12;align=center;" vertex="1" parent="1">
          <mxGeometry x="334" y="100" width="110" height="680" as="geometry" />
        </mxCell>
        <mxCell id="dWqMGCR1HXPKz_qinvt6-63" value="" style="html=1;points=[];perimeter=orthogonalPerimeter;rounded=0;shadow=0;comic=0;labelBackgroundColor=none;strokeWidth=1;fontFamily=Verdana;fontSize=12;align=center;" vertex="1" parent="dWqMGCR1HXPKz_qinvt6-62">
          <mxGeometry x="50" y="100" width="10" height="560" as="geometry" />
        </mxCell>
        <mxCell id="dWqMGCR1HXPKz_qinvt6-65" value="object(LeconData)" style="html=1;verticalAlign=bottom;endArrow=block;labelBackgroundColor=none;fontFamily=Verdana;fontSize=12;edgeStyle=elbowEdgeStyle;elbow=vertical;" edge="1" parent="1" source="dWqMGCR1HXPKz_qinvt6-59">
          <mxGeometry x="0.002" relative="1" as="geometry">
            <mxPoint x="309" y="210" as="sourcePoint" />
            <mxPoint x="389" y="200" as="targetPoint" />
            <mxPoint as="offset" />
          </mxGeometry>
        </mxCell>
        <mxCell id="dWqMGCR1HXPKz_qinvt6-72" value="Business" style="shape=note;whiteSpace=wrap;html=1;size=14;verticalAlign=top;align=center;spacingTop=-6;rounded=0;shadow=0;comic=0;labelBackgroundColor=none;strokeWidth=1;fontFamily=Verdana;fontSize=12" vertex="1" parent="1">
          <mxGeometry x="525" y="50" width="100" height="35" as="geometry" />
        </mxCell>
        <mxCell id="dWqMGCR1HXPKz_qinvt6-73" value="LeconBusiness" style="shape=umlLifeline;perimeter=lifelinePerimeter;whiteSpace=wrap;html=1;container=1;collapsible=0;recursiveResize=0;outlineConnect=0;rounded=1;shadow=0;comic=0;labelBackgroundColor=none;strokeWidth=1;fontFamily=Verdana;fontSize=12;align=center;" vertex="1" parent="1">
          <mxGeometry x="520" y="100" width="110" height="680" as="geometry" />
        </mxCell>
        <mxCell id="dWqMGCR1HXPKz_qinvt6-74" value="" style="html=1;points=[];perimeter=orthogonalPerimeter;rounded=0;shadow=0;comic=0;labelBackgroundColor=none;strokeWidth=1;fontFamily=Verdana;fontSize=12;align=center;" vertex="1" parent="dWqMGCR1HXPKz_qinvt6-73">
          <mxGeometry x="50" y="130" width="10" height="530" as="geometry" />
        </mxCell>
        <mxCell id="dWqMGCR1HXPKz_qinvt6-142" value="object(LeconData)" style="html=1;verticalAlign=bottom;endArrow=block;labelBackgroundColor=none;fontFamily=Verdana;fontSize=12;edgeStyle=elbowEdgeStyle;elbow=vertical;" edge="1" parent="dWqMGCR1HXPKz_qinvt6-73">
          <mxGeometry x="0.002" relative="1" as="geometry">
            <mxPoint x="-110" y="160" as="sourcePoint" />
            <mxPoint x="35" y="160" as="targetPoint" />
            <mxPoint as="offset" />
          </mxGeometry>
        </mxCell>
        <mxCell id="dWqMGCR1HXPKz_qinvt6-76" value="object(LeconData)" style="html=1;verticalAlign=bottom;endArrow=block;labelBackgroundColor=none;fontFamily=Verdana;fontSize=12;edgeStyle=elbowEdgeStyle;elbow=horizontal;" edge="1" parent="1">
          <mxGeometry x="0.2296" relative="1" as="geometry">
            <mxPoint x="399" y="383.5" as="sourcePoint" />
            <mxPoint x="562" y="383" as="targetPoint" />
            <mxPoint as="offset" />
          </mxGeometry>
        </mxCell>
        <mxCell id="dWqMGCR1HXPKz_qinvt6-81" value="Repository" style="shape=note;whiteSpace=wrap;html=1;size=14;verticalAlign=top;align=center;spacingTop=-6;rounded=0;shadow=0;comic=0;labelBackgroundColor=none;strokeWidth=1;fontFamily=Verdana;fontSize=12" vertex="1" parent="1">
          <mxGeometry x="695" y="50" width="100" height="35" as="geometry" />
        </mxCell>
        <mxCell id="dWqMGCR1HXPKz_qinvt6-82" value="Add" style="shape=umlLifeline;perimeter=lifelinePerimeter;whiteSpace=wrap;html=1;container=1;collapsible=0;recursiveResize=0;outlineConnect=0;rounded=1;shadow=0;comic=0;labelBackgroundColor=none;strokeWidth=1;fontFamily=Verdana;fontSize=12;align=center;" vertex="1" parent="1">
          <mxGeometry x="690" y="100" width="110" height="680" as="geometry" />
        </mxCell>
        <mxCell id="dWqMGCR1HXPKz_qinvt6-83" value="" style="html=1;points=[];perimeter=orthogonalPerimeter;rounded=0;shadow=0;comic=0;labelBackgroundColor=none;strokeWidth=1;fontFamily=Verdana;fontSize=12;align=center;" vertex="1" parent="dWqMGCR1HXPKz_qinvt6-82">
          <mxGeometry x="50" y="260" width="10" height="400" as="geometry" />
        </mxCell>
        <mxCell id="dWqMGCR1HXPKz_qinvt6-101" value="object(LeconData)" style="html=1;verticalAlign=bottom;endArrow=block;labelBackgroundColor=none;fontFamily=Verdana;fontSize=12;edgeStyle=elbowEdgeStyle;elbow=horizontal;" edge="1" parent="dWqMGCR1HXPKz_qinvt6-82">
          <mxGeometry x="0.2296" relative="1" as="geometry">
            <mxPoint x="-103" y="299.94" as="sourcePoint" />
            <mxPoint x="40" y="299" as="targetPoint" />
            <mxPoint as="offset" />
          </mxGeometry>
        </mxCell>
        <mxCell id="dWqMGCR1HXPKz_qinvt6-95" value="DB" style="shape=note;whiteSpace=wrap;html=1;size=14;verticalAlign=top;align=center;spacingTop=-6;rounded=0;shadow=0;comic=0;labelBackgroundColor=none;strokeWidth=1;fontFamily=Verdana;fontSize=12" vertex="1" parent="1">
          <mxGeometry x="865" y="50" width="100" height="35" as="geometry" />
        </mxCell>
        <mxCell id="dWqMGCR1HXPKz_qinvt6-96" value="Repository&lt;div&gt;SelectById&lt;/div&gt;" style="shape=umlLifeline;perimeter=lifelinePerimeter;whiteSpace=wrap;html=1;container=1;collapsible=0;recursiveResize=0;outlineConnect=0;rounded=1;shadow=0;comic=0;labelBackgroundColor=none;strokeWidth=1;fontFamily=Verdana;fontSize=12;align=center;" vertex="1" parent="1">
          <mxGeometry x="860" y="100" width="110" height="620" as="geometry" />
        </mxCell>
        <mxCell id="dWqMGCR1HXPKz_qinvt6-97" value="" style="html=1;points=[];perimeter=orthogonalPerimeter;rounded=0;shadow=0;comic=0;labelBackgroundColor=none;strokeWidth=1;fontFamily=Verdana;fontSize=12;align=center;" vertex="1" parent="dWqMGCR1HXPKz_qinvt6-96">
          <mxGeometry x="50" y="280" width="10" height="310" as="geometry" />
        </mxCell>
        <mxCell id="dWqMGCR1HXPKz_qinvt6-102" value="" style="group;movable=1;resizable=1;rotatable=1;deletable=1;editable=1;locked=0;connectable=1;" vertex="1" connectable="0" parent="1">
          <mxGeometry x="100" y="465" width="970" height="280" as="geometry" />
        </mxCell>
        <mxCell id="dWqMGCR1HXPKz_qinvt6-103" value="alt" style="shape=umlFrame;whiteSpace=wrap;html=1;pointerEvents=0;" vertex="1" parent="dWqMGCR1HXPKz_qinvt6-102">
          <mxGeometry width="970" height="280" as="geometry" />
        </mxCell>
        <mxCell id="dWqMGCR1HXPKz_qinvt6-104" value="" style="endArrow=none;dashed=1;html=1;rounded=0;exitX=0.006;exitY=0.529;exitDx=0;exitDy=0;exitPerimeter=0;entryX=0.969;entryY=0.529;entryDx=0;entryDy=0;entryPerimeter=0;" edge="1" parent="dWqMGCR1HXPKz_qinvt6-102" source="dWqMGCR1HXPKz_qinvt6-103" target="dWqMGCR1HXPKz_qinvt6-103">
          <mxGeometry width="50" height="50" relative="1" as="geometry">
            <mxPoint x="1212.4999999999998" y="108.52941176470587" as="sourcePoint" />
            <mxPoint x="1364.0625" y="48.23529411764706" as="targetPoint" />
            <Array as="points" />
          </mxGeometry>
        </mxCell>
        <mxCell id="dWqMGCR1HXPKz_qinvt6-105" value="[error]" style="text;html=1;align=center;verticalAlign=middle;resizable=0;points=[];autosize=1;strokeColor=none;fillColor=none;" vertex="1" parent="dWqMGCR1HXPKz_qinvt6-102">
          <mxGeometry x="10.004102564102567" y="115.00352941176472" width="60" height="30" as="geometry" />
        </mxCell>
        <mxCell id="dWqMGCR1HXPKz_qinvt6-106" value="[query success]" style="text;html=1;align=center;verticalAlign=middle;resizable=0;points=[];autosize=1;strokeColor=none;fillColor=none;" vertex="1" parent="dWqMGCR1HXPKz_qinvt6-102">
          <mxGeometry x="-0.0030769230769198685" y="155.00294117647059" width="110" height="30" as="geometry" />
        </mxCell>
        <mxCell id="dWqMGCR1HXPKz_qinvt6-108" value="DB Response&amp;nbsp;&lt;div&gt;(error)&lt;/div&gt;" style="html=1;verticalAlign=bottom;endArrow=open;dashed=1;endSize=8;labelBackgroundColor=none;fontFamily=Verdana;fontSize=12;edgeStyle=elbowEdgeStyle;elbow=vertical;" edge="1" parent="dWqMGCR1HXPKz_qinvt6-102">
          <mxGeometry relative="1" as="geometry">
            <mxPoint x="670" y="45" as="targetPoint" />
            <Array as="points">
              <mxPoint x="745" y="45" />
              <mxPoint x="775" y="45" />
            </Array>
            <mxPoint x="800" y="45" as="sourcePoint" />
          </mxGeometry>
        </mxCell>
        <mxCell id="dWqMGCR1HXPKz_qinvt6-109" value="&lt;div&gt;Object&lt;/div&gt;&lt;div&gt;(error)&lt;/div&gt;" style="html=1;verticalAlign=bottom;endArrow=open;dashed=1;endSize=8;labelBackgroundColor=none;fontFamily=Verdana;fontSize=12;edgeStyle=elbowEdgeStyle;elbow=vertical;" edge="1" parent="dWqMGCR1HXPKz_qinvt6-102">
          <mxGeometry relative="1" as="geometry">
            <mxPoint x="500" y="70" as="targetPoint" />
            <Array as="points">
              <mxPoint x="575" y="70" />
              <mxPoint x="605" y="70" />
            </Array>
            <mxPoint x="630" y="70" as="sourcePoint" />
          </mxGeometry>
        </mxCell>
        <mxCell id="dWqMGCR1HXPKz_qinvt6-110" value="Object&amp;nbsp;&lt;div&gt;(error)&lt;/div&gt;" style="html=1;verticalAlign=bottom;endArrow=open;dashed=1;endSize=8;labelBackgroundColor=none;fontFamily=Verdana;fontSize=12;edgeStyle=elbowEdgeStyle;elbow=vertical;" edge="1" parent="dWqMGCR1HXPKz_qinvt6-102">
          <mxGeometry relative="1" as="geometry">
            <mxPoint x="320" y="84" as="targetPoint" />
            <Array as="points">
              <mxPoint x="395" y="84" />
              <mxPoint x="425" y="84" />
            </Array>
            <mxPoint x="450" y="84" as="sourcePoint" />
          </mxGeometry>
        </mxCell>
        <mxCell id="dWqMGCR1HXPKz_qinvt6-126" value="HTTP Response&amp;nbsp;&lt;div&gt;(error)&lt;/div&gt;" style="html=1;verticalAlign=bottom;endArrow=open;dashed=1;endSize=8;labelBackgroundColor=none;fontFamily=Verdana;fontSize=12;edgeStyle=elbowEdgeStyle;elbow=vertical;" edge="1" parent="dWqMGCR1HXPKz_qinvt6-102">
          <mxGeometry relative="1" as="geometry">
            <mxPoint x="150" y="100" as="targetPoint" />
            <Array as="points">
              <mxPoint x="225" y="100" />
              <mxPoint x="255" y="100" />
            </Array>
            <mxPoint x="280" y="100" as="sourcePoint" />
          </mxGeometry>
        </mxCell>
        <mxCell id="dWqMGCR1HXPKz_qinvt6-127" value="DB Response&amp;nbsp;&lt;div&gt;(insert success)&lt;/div&gt;" style="html=1;verticalAlign=bottom;endArrow=open;dashed=1;endSize=8;labelBackgroundColor=none;fontFamily=Verdana;fontSize=12;edgeStyle=elbowEdgeStyle;elbow=vertical;" edge="1" parent="dWqMGCR1HXPKz_qinvt6-102">
          <mxGeometry relative="1" as="geometry">
            <mxPoint x="660" y="195" as="targetPoint" />
            <Array as="points">
              <mxPoint x="735" y="195" />
              <mxPoint x="765" y="195" />
            </Array>
            <mxPoint x="790" y="195" as="sourcePoint" />
          </mxGeometry>
        </mxCell>
        <mxCell id="dWqMGCR1HXPKz_qinvt6-128" value="&lt;div&gt;Object&lt;/div&gt;&lt;div&gt;(valid)&lt;/div&gt;" style="html=1;verticalAlign=bottom;endArrow=open;dashed=1;endSize=8;labelBackgroundColor=none;fontFamily=Verdana;fontSize=12;edgeStyle=elbowEdgeStyle;elbow=vertical;" edge="1" parent="dWqMGCR1HXPKz_qinvt6-102">
          <mxGeometry relative="1" as="geometry">
            <mxPoint x="500" y="215" as="targetPoint" />
            <Array as="points">
              <mxPoint x="575" y="215" />
              <mxPoint x="605" y="215" />
            </Array>
            <mxPoint x="630" y="215" as="sourcePoint" />
          </mxGeometry>
        </mxCell>
        <mxCell id="dWqMGCR1HXPKz_qinvt6-140" value="&lt;div&gt;Object&lt;/div&gt;&lt;div&gt;(valid)&lt;/div&gt;" style="html=1;verticalAlign=bottom;endArrow=open;dashed=1;endSize=8;labelBackgroundColor=none;fontFamily=Verdana;fontSize=12;edgeStyle=elbowEdgeStyle;elbow=vertical;" edge="1" parent="dWqMGCR1HXPKz_qinvt6-102">
          <mxGeometry relative="1" as="geometry">
            <mxPoint x="320" y="225" as="targetPoint" />
            <Array as="points">
              <mxPoint x="395" y="225" />
              <mxPoint x="425" y="225" />
            </Array>
            <mxPoint x="450" y="225" as="sourcePoint" />
          </mxGeometry>
        </mxCell>
        <mxCell id="dWqMGCR1HXPKz_qinvt6-141" value="HTTP Response&amp;nbsp;&lt;div&gt;(valid)&lt;/div&gt;" style="html=1;verticalAlign=bottom;endArrow=open;dashed=1;endSize=8;labelBackgroundColor=none;fontFamily=Verdana;fontSize=12;edgeStyle=elbowEdgeStyle;elbow=vertical;" edge="1" parent="dWqMGCR1HXPKz_qinvt6-102">
          <mxGeometry relative="1" as="geometry">
            <mxPoint x="150" y="255" as="targetPoint" />
            <Array as="points">
              <mxPoint x="225" y="255" />
              <mxPoint x="255" y="255" />
            </Array>
            <mxPoint x="280" y="255" as="sourcePoint" />
          </mxGeometry>
        </mxCell>
        <mxCell id="dWqMGCR1HXPKz_qinvt6-144" value="SQL Query (data)" style="html=1;verticalAlign=bottom;endArrow=block;labelBackgroundColor=none;fontFamily=Verdana;fontSize=12;edgeStyle=elbowEdgeStyle;elbow=vertical;" edge="1" parent="1">
          <mxGeometry x="0.2296" relative="1" as="geometry">
            <mxPoint x="760" y="420.94" as="sourcePoint" />
            <mxPoint x="903" y="420" as="targetPoint" />
            <mxPoint as="offset" />
          </mxGeometry>
        </mxCell>
      </root>
    </mxGraphModel>
  </diagram>
</mxfile>
